<?xml version="1.0" encoding="utf-8"?>
<!-- Generator: Adobe Illustrator 26.0.0, SVG Export Plug-In . SVG Version: 6.00 Build 0)  -->
<svg version="1.1" id="Layer_1" xmlns="http://www.w3.org/2000/svg" xmlns:xlink="http://www.w3.org/1999/xlink" x="0px" y="0px"
	 viewBox="0 0 222 222" style="enable-background:new 0 0 222 222;" xml:space="preserve">
<style type="text/css">
	.st0{fill:#65696C;}
	.st1{fill:#D22027;}
</style>
<g>
	<polygon class="st0" points="4.1,92.8 4.1,119 7.9,119 7.9,107.1 33,107.1 33,103.8 7.9,103.8 7.9,96.1 34.8,96.1 34.8,92.8 	"/>
	<polygon class="st0" points="38.3,92.8 68.7,92.8 68.7,95.8 41.4,95.8 41.4,104 67.2,104 67.2,106.6 41.4,106.6 41.4,115.8 
		68.7,115.8 68.7,119 38.3,119 	"/>
	<path class="st0" d="M208.2,93h-23.7v26h3.6v-10.9h19.4c0,0,7.9-0.2,7.9-7.6S208.2,93,208.2,93z M207.2,104.8h-18.9v-8.9h19.4
		c0,0,4.4,0.2,4.4,4.4C212.1,104.5,207.2,104.8,207.2,104.8z"/>
	<path class="st1" d="M75,93c0,0,6.9-1.2,10,2.1s15.5,18.4,15.5,18.4s3.1,3.8,5.3,3.8c2.3-0.2,3.9-2.5,5.6-4.4
		c1.6-2,12.8-15.3,12.8-15.3s3.3-4.4,6.9-4.6c3.6-0.2,5.4,0.5,5.4,0.5s-4.9,2.3-7.9,5.9c-3,3.6-13.6,16.9-13.6,16.9
		s-1.5,2.6-7.1,2.8c-3.1,0.2-4.9,0-4.9,0s-3.8,0-6.2-2.8c-1.6-2.1-16-18.9-16-18.9S78.6,94.3,75,93z"/>
	<path class="st1" d="M178.4,119.3c0,0-6.9,1.2-10-2.1c-3.1-3.3-15.5-18.5-15.5-18.5s-3.1-3.8-5.3-3.8c-2.3,0-3.9,2.5-5.6,4.4
		c-1.6,2-12.8,15.3-12.8,15.3s-3.3,4.4-6.9,4.6s-5.4-0.5-5.4-0.5s4.9-2.3,7.9-5.9c3-3.6,13.6-16.9,13.6-16.9s1.5-2.6,7.1-2.8
		c3.1-0.2,4.9,0,4.9,0s3.8,0,6.2,2.8c1.8,2.1,16,18.9,16,18.9S174.8,118,178.4,119.3z"/>
	<g>
		<path class="st0" d="M4.8,128.7v-5.3h3.6v0.8H5.7v1.2h2.2v0.8H5.7v2.1h-1L4.8,128.7L4.8,128.7z"/>
		<path class="st0" d="M9.2,128.7v-5.3H13v0.8h-2.8v1.2h2.6v0.8h-2.6v1.5h3v0.8H9.3L9.2,128.7L9.2,128.7z"/>
		<path class="st0" d="M14,123.6h2c0.5,0,0.8,0,1,0.2c0.3,0.2,0.5,0.3,0.8,0.5c0.2,0.2,0.3,0.5,0.5,0.8c0.2,0.3,0.2,0.8,0.2,1.2
			c0,0.5,0,0.8-0.2,1.2s-0.3,0.7-0.5,1c-0.2,0.2-0.5,0.3-0.7,0.5c-0.2,0-0.5,0.2-1,0.2H14C14,129.2,14,123.6,14,123.6z M15,124.4
			v3.5h0.8c0.3,0,0.5,0,0.7,0s0.3-0.2,0.5-0.2c0-0.2,0.2-0.3,0.2-0.7s0.2-0.5,0.2-1c0-0.3,0-0.7-0.2-1c-0.2-0.3-0.2-0.3-0.3-0.5
			c-0.2-0.2-0.3-0.2-0.5-0.2s-0.5,0-0.8,0C15.4,124.4,15,124.4,15,124.4z"/>
		<path class="st0" d="M19.2,128.7v-5.3H23v0.8h-2.8v1.2h2.6v0.8h-2.6v1.5h3v0.8h-3.9v0.2H19.2z"/>
		<path class="st0" d="M24.2,128.7v-5.3h2.1c0.5,0,1,0,1.2,0.2c0.3,0.2,0.5,0.3,0.7,0.5c0.2,0.2,0.2,0.5,0.2,0.8
			c0,0.3-0.2,0.7-0.3,1c-0.1,0.3-0.5,0.5-1,0.5c0.2,0.2,0.5,0.3,0.5,0.5c0.2,0.2,0.3,0.5,0.7,0.8l0.7,1h-1.3l-0.8-1.2
			c-0.3-0.3-0.5-0.7-0.5-0.8c-0.2-0.2-0.2-0.2-0.3-0.2c-0.2,0-0.3,0-0.5,0h-0.2v2.1C25.1,128.7,24.2,128.7,24.2,128.7z M25.1,125.7
			h0.8c0.5,0,0.8,0,1,0s0.2-0.2,0.3-0.2c0-0.2,0.2-0.2,0.2-0.3c0-0.2,0-0.3-0.2-0.5c-0.2-0.2-0.2-0.2-0.3-0.2s-0.3,0-0.8,0h-0.8v1.2
			H25.1z"/>
		<path class="st0" d="M34,128.7h-1.1l-0.5-1.2h-2.1l-0.5,1.2h-1.2l2-5.3h1.3L34,128.7z M32.1,126.7l-0.7-2l-0.7,2H32.1z"/>
		<path class="st0" d="M38,126.9l1,0.3c-0.2,0.5-0.5,1-0.8,1.3s-0.8,0.5-1.3,0.5c-0.7,0-1.3-0.2-1.6-0.7c-0.5-0.5-0.7-1.2-0.7-2
			c0-0.8,0.2-1.5,0.7-2s1-0.7,1.8-0.7c0.7,0,1.2,0.2,1.5,0.5c0.2,0.2,0.5,0.5,0.5,1l-1,0.3c0-0.3-0.2-0.5-0.3-0.7
			c-0.1-0.2-0.5-0.2-0.7-0.2c-0.3,0-0.7,0.2-1,0.5c-0.2,0.3-0.3,0.7-0.3,1.3s0.2,1.2,0.3,1.5c0.1,0.3,0.5,0.5,1,0.5
			c0.3,0,0.5-0.2,0.7-0.3C37.6,127.5,37.8,127.2,38,126.9z"/>
		<path class="st0" d="M39.8,128.7v-5.3h1v5.3H39.8z"/>
		<path class="st0" d="M41.6,126.2c0-0.5,0-1,0.2-1.3c0.2-0.3,0.3-0.5,0.5-0.7c0.2-0.2,0.5-0.3,0.7-0.5c0.3-0.2,0.7-0.2,1.2-0.2
			c0.8,0,1.3,0.2,1.8,0.7s0.7,1.2,0.7,2c0,0.8-0.2,1.5-0.7,2s-1,0.7-1.8,0.7s-1.3-0.2-1.8-0.7C41.9,127.7,41.6,127,41.6,126.2z
			 M42.7,126c0,0.7,0.2,1,0.3,1.3c0.3,0.3,0.7,0.5,1,0.5s0.8-0.2,1-0.5c0.3-0.3,0.3-0.8,0.3-1.3c0-0.7-0.2-1-0.3-1.3
			c-0.3-0.3-0.7-0.5-1-0.5c-0.5,0-0.8,0.2-1,0.5C42.8,125,42.7,125.5,42.7,126z M43.6,123.2l0.5-1h1.2l-1,1H43.6z"/>
		<path class="st0" d="M47.5,128.7v-5.3h1l2.1,3.5v-3.5h1v5.3h-1l-2.1-3.5v3.5H47.5z"/>
		<path class="st0" d="M56.2,128.7l-1.8-5.3h1.2l1.3,3.8l1.3-3.8h1.2l-1.8,5.3H56.2z"/>
		<path class="st0" d="M59.7,128.7v-5.3h3.8v0.8h-2.8v1.2h2.6v0.8h-2.6v1.5h3v0.8h-3.9v0.2H59.7z"/>
		<path class="st0" d="M64.6,128.7v-5.3h1l2.1,3.5v-3.5h1v5.3h-1l-2.1-3.5v3.5H64.6z"/>
		<path class="st0" d="M69.9,128.7v-5.3h3.8v0.8h-2.8v1.2h2.6v0.8h-2.6v1.5h3v0.8h-4V128.7z"/>
		<path class="st0" d="M74.1,128.7v-1l2.8-3.5h-2.5v-0.8h3.8v0.8l-2.8,3.5h3v0.8h-4.3V128.7z"/>
		<path class="st0" d="M78.9,126.2c0-0.5,0-1,0.2-1.3c0.2-0.3,0.3-0.5,0.5-0.7c0.2-0.2,0.5-0.3,0.7-0.5c0.3-0.2,0.7-0.2,1.2-0.2
			c0.8,0,1.3,0.2,1.8,0.7s0.7,1.2,0.7,2c0,0.8-0.2,1.5-0.7,2s-1,0.7-1.8,0.7s-1.3-0.2-1.8-0.7C79.1,127.7,78.9,127,78.9,126.2z
			 M79.9,126c0,0.7,0.2,1,0.3,1.3c0.3,0.3,0.7,0.5,1,0.5s0.8-0.2,1-0.5c0.3-0.3,0.3-0.8,0.3-1.3c0-0.7-0.2-1-0.3-1.3
			c-0.3-0.3-0.7-0.5-1-0.5s-0.8,0.2-1,0.5C80.1,125,79.9,125.5,79.9,126z"/>
		<path class="st0" d="M84.8,128.7v-5.1h1v4.3h2.6v0.8H84.8z"/>
		<path class="st0" d="M93.9,128.7h-1.2l-0.5-1.2h-2.1l-0.5,1.2h-1.2l2-5.3h1.2L93.9,128.7z M91.9,126.7l-0.7-2l-0.7,2H91.9z"/>
		<path class="st0" d="M94.5,128.7v-5.3h1l2.1,3.5v-3.5h1v5.3h-1l-2.1-3.5v3.5H94.5z"/>
		<path class="st0" d="M104.4,128.7h-1.2l-0.5-1.2h-2.1l-0.5,1.2h-1.2l2-5.3h1.2L104.4,128.7z M102.4,126.7l-0.7-2l-0.7,2H102.4z"/>
		<path class="st0" d="M106.7,123.6h2c0.5,0,0.8,0,1,0.2c0.3,0.2,0.5,0.3,0.8,0.5c0.2,0.2,0.3,0.5,0.5,0.8c0.2,0.3,0.2,0.8,0.2,1.2
			c0,0.5,0,0.8-0.2,1.2c-0.2,0.3-0.3,0.7-0.5,1c-0.2,0.2-0.5,0.3-0.7,0.5c-0.2,0-0.5,0.2-1,0.2h-2v-5.4h-0.1V123.6z M107.9,124.4
			v3.5h0.8c0.3,0,0.5,0,0.7,0s0.3-0.2,0.5-0.2c0.2-0.2,0.2-0.3,0.3-0.5c0-0.2,0.2-0.5,0.2-1c0-0.3,0-0.7-0.2-1
			c0-0.2-0.2-0.3-0.3-0.5c-0.2-0.2-0.3-0.2-0.5-0.2s-0.5,0-0.8,0L107.9,124.4L107.9,124.4z"/>
		<path class="st0" d="M112,128.7v-5.3h3.8v0.8H113v1.2h2.6v0.8H113v1.5h3v0.8h-3.9L112,128.7L112,128.7z"/>
		<path class="st0" d="M123.3,128.7h-1.2l-0.5-1.2h-2.1l-0.5,1.2h-1.1l2-5.3h1.2L123.3,128.7z M121.3,126.7l-0.7-2l-0.7,2H121.3z"/>
		<path class="st0" d="M126.3,126.9v-0.8h2.3v2.1c-0.2,0.2-0.5,0.3-1,0.5c-0.5,0.2-0.8,0.2-1.3,0.2s-1-0.2-1.5-0.3
			c-0.3-0.2-0.7-0.5-1-1c-0.2-0.5-0.3-0.8-0.3-1.3s0.2-1,0.3-1.5c0.2-0.5,0.5-0.8,1-1c0.3-0.2,0.8-0.3,1.3-0.3
			c0.7,0,1.2,0.2,1.5,0.3c0.3,0.3,0.7,0.7,0.7,1.2l-1,0.2c0-0.3-0.2-0.5-0.5-0.7c-0.2-0.2-0.5-0.2-0.8-0.2c-0.5,0-0.8,0.2-1.2,0.5
			c-0.3,0.3-0.3,0.7-0.3,1.3s0.2,1.2,0.5,1.3c0.3,0.3,0.7,0.5,1.2,0.5c0.2,0,0.5,0,0.7-0.2c0.2-0.2,0.5-0.2,0.5-0.3v-0.7h-1
			L126.3,126.9L126.3,126.9z"/>
		<path class="st0" d="M129.6,128.7v-5.3h3.8v0.8h-2.8v1.2h2.6v0.8h-2.6v1.5h3v0.8h-3.9v0.2H129.6z"/>
		<path class="st0" d="M134.3,128.7v-5.3h1.2l2.1,3.5v-3.5h1v5.3h-1l-2.1-3.5v3.5H134.3z"/>
		<path class="st0" d="M142.9,126.9l1,0.3c-0.2,0.5-0.5,1-0.8,1.3s-0.8,0.5-1.3,0.5c-0.7,0-1.3-0.2-1.6-0.7c-0.5-0.5-0.7-1.2-0.7-2
			c0-0.8,0.2-1.5,0.7-2s1-0.7,1.8-0.7c0.7,0,1.2,0.2,1.5,0.5c0.2,0.2,0.5,0.5,0.5,1l-1,0.3c0-0.3-0.2-0.5-0.3-0.7
			c-0.1-0.2-0.5-0.2-0.7-0.2c-0.3,0-0.7,0.2-1,0.5c-0.2,0.3-0.3,0.7-0.3,1.3s0.2,1.2,0.3,1.5c0.2,0.3,0.5,0.5,1,0.5
			c0.3,0,0.5-0.2,0.7-0.3C142.7,127.5,142.9,127.2,142.9,126.9z"/>
		<path class="st0" d="M144.9,128.7v-5.3h1v5.3H144.9z"/>
		<path class="st0" d="M151.6,128.7h-1.2l-0.5-1.2h-2.1l-0.5,1.2h-1.2l2-5.3h1.2L151.6,128.7z M149.6,126.7l-0.7-2l-0.7,2H149.6z"/>
		<path class="st0" d="M151.9,127l1-0.2c0,0.3,0.2,0.7,0.3,0.8c0.2,0.2,0.5,0.2,0.8,0.2s0.7,0,0.8-0.2c0.1-0.2,0.3-0.3,0.3-0.5
			c0-0.2,0-0.2-0.2-0.3c0-0.2-0.2-0.2-0.3-0.2s-0.3-0.2-0.8-0.2c-0.5-0.2-1-0.3-1.2-0.5c-0.3-0.3-0.5-0.7-0.5-1c0-0.3,0-0.5,0.2-0.8
			c0.2-0.2,0.3-0.3,0.7-0.5c0.3-0.2,0.7-0.2,1-0.2c0.7,0,1.2,0.2,1.5,0.5c0.3,0.3,0.5,0.7,0.5,1.2h-1c0-0.3-0.2-0.5-0.3-0.7
			c-0.2-0.2-0.3-0.2-0.7-0.2s-0.5,0-0.7,0.2c-0.2,0-0.2,0.2-0.2,0.3s0,0.2,0.2,0.3c0.2,0.2,0.5,0.2,1,0.3c0.5,0.2,0.8,0.2,1.2,0.3
			c0.2,0.2,0.5,0.3,0.7,0.5c0.2,0.2,0.2,0.5,0.2,0.8c0,0.3-0.2,0.7-0.3,0.8c-0.2,0.3-0.3,0.5-0.7,0.7s-0.7,0.2-1.2,0.2
			c-0.7,0-1.2-0.2-1.5-0.5C152.3,128,151.9,127.7,151.9,127z"/>
		<path class="st0" d="M159,123.6h2c0.5,0,0.8,0,1,0.2c0.3,0.2,0.5,0.3,0.8,0.5c0.2,0.2,0.3,0.5,0.5,0.8c0.2,0.3,0.2,0.8,0.2,1.2
			c0,0.5,0,0.8-0.2,1.2c-0.2,0.3-0.3,0.7-0.5,1c-0.2,0.2-0.5,0.3-0.7,0.5c-0.2,0-0.5,0.2-1,0.2h-2v-5.4H159V123.6z M160.1,124.4v3.5
			h0.8c0.3,0,0.5,0,0.7,0s0.3-0.2,0.5-0.2c0.2-0.2,0.2-0.3,0.3-0.5c0-0.2,0.2-0.5,0.2-1c0-0.3,0-0.7-0.2-1c0-0.2-0.2-0.3-0.3-0.5
			c-0.2-0.2-0.3-0.2-0.5-0.2s-0.5,0-0.8,0L160.1,124.4L160.1,124.4z"/>
		<path class="st0" d="M164.3,128.7v-5.3h3.9v0.8h-2.8v1.2h2.6v0.8h-2.6v1.5h3v0.8h-4.1L164.3,128.7L164.3,128.7z"/>
		<path class="st0" d="M171.2,128.7v-5.3h1.6c0.7,0,1,0,1.3,0s0.5,0.3,0.8,0.5c0.2,0.3,0.3,0.7,0.3,1c0,0.3,0,0.7-0.2,0.8
			c-0.2,0.2-0.3,0.3-0.5,0.5c-0.2,0.2-0.3,0.2-0.5,0.3c-0.3,0-0.7,0-1.2,0h-0.7v2h-1.2v0.2H171.2z M172.2,124.4v1.5h0.5
			c0.5,0,0.7,0,0.8,0s0.3-0.2,0.3-0.3s0.2-0.3,0.2-0.3c0-0.2,0-0.3-0.2-0.5c-0.2-0.2-0.3-0.2-0.5-0.2s-0.3,0-0.8,0h-0.3V124.4z"/>
		<path class="st0" d="M176.1,123.6h1v2.8c0,0.5,0,0.7,0,0.8s0.2,0.3,0.3,0.5c0.2,0.2,0.3,0.2,0.7,0.2c0.3,0,0.5,0,0.7-0.2
			c0.2-0.2,0.2-0.3,0.3-0.5c0-0.2,0-0.5,0-0.8v-3h1v2.8c0,0.7,0,1-0.2,1.3c0,0.3-0.2,0.5-0.3,0.7s-0.3,0.3-0.7,0.5s-0.7,0.2-1,0.2
			c-0.5,0-0.8,0-1.2-0.2c-0.3-0.2-0.5-0.3-0.7-0.5s-0.3-0.3-0.3-0.7c0-0.3-0.2-0.7-0.2-1.3v-2.6H176.1z"/>
		<path class="st0" d="M181.4,123.6h2.1c0.5,0,0.7,0,1,0c0.2,0,0.3,0.2,0.5,0.2c0.2,0.2,0.3,0.3,0.3,0.5c0.2,0.2,0.2,0.3,0.2,0.7
			c0,0.2,0,0.5-0.2,0.7c-0.2,0.2-0.3,0.3-0.5,0.5c0.3,0.2,0.5,0.3,0.7,0.5c0.2,0.2,0.3,0.5,0.3,0.8c0,0.2,0,0.5-0.2,0.7
			c-0.2,0.2-0.3,0.3-0.5,0.5c-0.2,0.2-0.5,0.2-0.7,0.3c-0.2,0-0.7,0-1.3,0h-1.8C181.4,128.8,181.4,123.6,181.4,123.6z M182.3,124.4
			v1.2h0.7c0.3,0,0.7,0,0.8,0c0.2,0,0.3-0.2,0.5-0.2c0.2-0.2,0.2-0.2,0.2-0.3s0-0.3-0.2-0.3c-0.2-0.2-0.2-0.2-0.3-0.2s-0.3,0-0.8,0
			h-0.8L182.3,124.4L182.3,124.4z M182.3,126.4v1.3h1c0.3,0,0.7,0,0.7,0c0.2,0,0.3-0.2,0.3-0.2c0.2-0.2,0.2-0.3,0.2-0.5
			c0-0.2,0-0.3-0.2-0.3c0-0.2-0.2-0.2-0.3-0.2s-0.5,0-1,0L182.3,126.4L182.3,126.4z"/>
		<path class="st0" d="M186.6,128.7v-5.1h1v4.3h2.6v0.8H186.6z"/>
		<path class="st0" d="M190.9,128.7v-5.3h1v5.3H190.9z"/>
		<path class="st0" d="M196.3,126.9l1,0.3c-0.2,0.5-0.5,1-0.8,1.3s-0.8,0.5-1.3,0.5c-0.7,0-1.3-0.2-1.6-0.7c-0.5-0.5-0.7-1.2-0.7-2
			c0-0.8,0.2-1.5,0.7-2s1-0.7,1.8-0.7c0.7,0,1.2,0.2,1.5,0.5c0.2,0.2,0.5,0.5,0.5,1l-1,0.3c0-0.3-0.2-0.5-0.3-0.7
			c-0.2-0.2-0.5-0.2-0.7-0.2c-0.3,0-0.7,0.2-1,0.5c-0.2,0.3-0.3,0.7-0.3,1.3s0.2,1.2,0.3,1.5c0.2,0.3,0.5,0.5,1,0.5
			c0.3,0,0.5-0.2,0.7-0.3C196.2,127.5,196.3,127.2,196.3,126.9z"/>
		<path class="st0" d="M198.3,128.7v-5.3h1v5.3H198.3z"/>
		<path class="st0" d="M200.3,123.6h2c0.5,0,0.8,0,1,0.2c0.3,0.2,0.5,0.3,0.8,0.5c0.2,0.2,0.3,0.5,0.5,0.8c0.2,0.3,0.2,0.8,0.2,1.2
			c0,0.5,0,0.8-0.2,1.2c-0.2,0.3-0.3,0.7-0.5,1c-0.2,0.2-0.5,0.3-0.7,0.5c-0.2,0-0.5,0.2-1,0.2h-2v-5.4h-0.1V123.6z M201.4,124.4
			v3.5h0.8c0.3,0,0.5,0,0.7,0s0.3-0.2,0.5-0.2c0.2-0.2,0.2-0.3,0.3-0.5c0-0.2,0.2-0.5,0.2-1c0-0.3,0-0.7-0.2-1
			c0-0.2-0.2-0.3-0.3-0.5c-0.2-0.2-0.3-0.2-0.5-0.2s-0.5,0-0.8,0L201.4,124.4L201.4,124.4z"/>
		<path class="st0" d="M210.3,128.7h-1.2l-0.5-1.2h-2.1l-0.5,1.2h-1.1l2-5.3h1.2L210.3,128.7z M208.3,126.7l-0.7-2l-0.7,2H208.3z"/>
		<path class="st0" d="M210.8,123.6h2c0.5,0,0.8,0,1,0.2c0.3,0.2,0.5,0.3,0.8,0.5c0.2,0.2,0.3,0.5,0.5,0.8c0.2,0.3,0.2,0.8,0.2,1.2
			c0,0.5,0,0.8-0.2,1.2s-0.3,0.7-0.5,1c-0.2,0.2-0.5,0.3-0.7,0.5c-0.2,0-0.5,0.2-1,0.2h-2v-5.4h-0.1V123.6z M211.8,124.4v3.5h0.8
			c0.3,0,0.5,0,0.7,0s0.3-0.2,0.5-0.2c0.2-0.2,0.2-0.3,0.3-0.5c0-0.2,0.2-0.5,0.2-1c0-0.3,0-0.7-0.2-1c0-0.2-0.2-0.3-0.3-0.5
			c-0.2-0.2-0.3-0.2-0.5-0.2s-0.5,0-0.8,0L211.8,124.4L211.8,124.4z"/>
	</g>
</g>
</svg>
