<?xml version="1.0" encoding="utf-8"?>
<!-- Generator: Adobe Illustrator 26.0.0, SVG Export Plug-In . SVG Version: 6.00 Build 0)  -->
<svg version="1.1" id="Layer_1" xmlns="http://www.w3.org/2000/svg" xmlns:xlink="http://www.w3.org/1999/xlink" x="0px" y="0px"
	 viewBox="0 0 222 222" style="enable-background:new 0 0 222 222;" xml:space="preserve">
<style type="text/css">
	.st0{fill:#EC1E24;}
	.st1{fill:#231F20;}
</style>
<g>
	<g>
		<polygon class="st0" points="77.6,54.8 92.1,54.8 111.8,96.7 58.6,96.7 70.7,68.9 83.8,68.9 78.1,85.3 91.6,85.3 		"/>
		<polygon class="st0" points="129.2,99.8 143.7,99.8 163.4,141.6 110.2,141.6 122.3,113.8 135.3,113.8 129.6,130.2 143.1,130.2 		
			"/>
		<path d="M113.5,96.7h12.3V68.1h16.9c0,0,4.4-0.5,4.4,4.4s0,24.1,0,24.1h13V70.1c0,0,0-14-14.3-15.2c-17.8,0-32.3,0-32.3,0
			L113.5,96.7L113.5,96.7z"/>
		<path d="M57.6,99.3v11.9h33.5c0,0,9,0,9.1,6.4c0.1,6.4-0.1,11.2-5.8,11.6c-5.7,0.5-14.5,0-14.5,0v-14.9H67.6v26.8h27.3
			c0,0,11.4-0.7,15.4-9.8s5-16.9-4.3-26.6C99.7,99,93,99.3,93,99.3H57.6z"/>
	</g>
	<g>
		<path class="st1" d="M58.6,158h-1.3l-0.5-1.4h-2.4l-0.5,1.4h-1.3l2.3-6h1.3L58.6,158z M56.4,155.7l-0.8-2.2l-0.8,2.2H56.4z"/>
		<path class="st1" d="M58.9,156.1l1.2-0.1c0.1,0.4,0.2,0.7,0.5,0.8s0.5,0.3,0.8,0.3c0.4,0,0.7-0.1,0.9-0.2s0.3-0.3,0.3-0.6
			c0-0.1-0.1-0.3-0.1-0.3c-0.1-0.1-0.2-0.2-0.5-0.3c-0.1-0.1-0.5-0.1-1-0.3c-0.6-0.2-1.1-0.3-1.4-0.6c-0.3-0.3-0.6-0.7-0.6-1.2
			c0-0.3,0.1-0.6,0.3-0.8c0.2-0.3,0.4-0.5,0.7-0.6c0.3-0.1,0.7-0.2,1.2-0.2c0.7,0,1.3,0.2,1.7,0.5c0.4,0.3,0.6,0.8,0.6,1.3l-1.2,0.1
			c-0.1-0.3-0.2-0.5-0.3-0.7c-0.2-0.1-0.5-0.2-0.8-0.2s-0.6,0.1-0.8,0.2c-0.1,0.1-0.2,0.2-0.2,0.4c0,0.1,0.1,0.3,0.2,0.3
			c0.2,0.1,0.5,0.3,1.1,0.4c0.6,0.1,1,0.3,1.3,0.5s0.5,0.3,0.7,0.6s0.2,0.6,0.2,1c0,0.3-0.1,0.7-0.3,1s-0.5,0.5-0.8,0.7
			c-0.3,0.2-0.8,0.2-1.3,0.2c-0.7,0-1.4-0.2-1.7-0.5C59.2,157.3,59,156.8,58.9,156.1z"/>
		<path class="st1" d="M64.5,155.1c0-0.6,0.1-1.1,0.3-1.5c0.1-0.3,0.3-0.6,0.6-0.8c0.2-0.2,0.5-0.4,0.8-0.6c0.4-0.2,0.8-0.2,1.3-0.2
			c0.9,0,1.6,0.3,2.1,0.8c0.5,0.6,0.8,1.3,0.8,2.3c0,1-0.3,1.7-0.8,2.3c-0.5,0.6-1.2,0.8-2.1,0.8c-0.9,0-1.6-0.3-2.1-0.8
			C64.8,156.8,64.5,156,64.5,155.1z M65.8,155.1c0,0.7,0.2,1.2,0.5,1.5c0.3,0.3,0.7,0.5,1.2,0.5c0.5,0,0.8-0.2,1.2-0.5
			c0.3-0.3,0.5-0.8,0.5-1.6c0-0.7-0.2-1.2-0.5-1.5c-0.3-0.3-0.7-0.5-1.2-0.5c-0.5,0-0.9,0.2-1.2,0.5
			C65.9,153.8,65.8,154.3,65.8,155.1z"/>
		<path class="st1" d="M75.1,155.9l1.2,0.4c-0.2,0.7-0.5,1.1-0.9,1.5c-0.4,0.3-1,0.5-1.6,0.5c-0.8,0-1.5-0.3-2-0.8
			c-0.5-0.6-0.8-1.3-0.8-2.2c0-1,0.3-1.7,0.8-2.3s1.2-0.8,2-0.8c0.7,0,1.3,0.2,1.8,0.6c0.3,0.3,0.5,0.6,0.6,1.1l-1.2,0.3
			c-0.1-0.3-0.2-0.6-0.5-0.7s-0.5-0.3-0.8-0.3c-0.5,0-0.8,0.2-1.1,0.5c-0.3,0.3-0.4,0.8-0.4,1.5c0,0.7,0.1,1.3,0.4,1.6
			s0.6,0.5,1.1,0.5c0.3,0,0.6-0.1,0.8-0.3C74.8,156.6,75,156.3,75.1,155.9z"/>
		<path class="st1" d="M77.2,158v-6h1.2v6H77.2z"/>
		<path class="st1" d="M85,158h-1.3l-0.5-1.4h-2.4l-0.5,1.4H79l2.3-6h1.3L85,158z M82.8,155.7l-0.8-2.2l-0.8,2.2H82.8z"/>
		<path class="st1" d="M89.4,155.9l1.2,0.4c-0.2,0.7-0.5,1.1-0.9,1.5c-0.4,0.3-1,0.5-1.6,0.5c-0.8,0-1.5-0.3-2-0.8
			c-0.5-0.6-0.8-1.3-0.8-2.2c0-1,0.3-1.7,0.8-2.3c0.5-0.6,1.2-0.8,2-0.8c0.7,0,1.3,0.2,1.8,0.6c0.3,0.3,0.5,0.6,0.6,1.1l-1.2,0.3
			c-0.1-0.3-0.2-0.6-0.5-0.7s-0.5-0.3-0.8-0.3c-0.5,0-0.8,0.2-1.1,0.5s-0.4,0.8-0.4,1.5c0,0.7,0.1,1.3,0.4,1.6s0.6,0.5,1.1,0.5
			c0.3,0,0.6-0.1,0.8-0.3C89.1,156.6,89.3,156.3,89.4,155.9z"/>
		<path class="st1" d="M91.6,158v-6h1.2v6H91.6z"/>
		<path class="st1" d="M93.7,155.1c0-0.6,0.1-1.1,0.3-1.5c0.1-0.3,0.3-0.6,0.6-0.8c0.2-0.2,0.5-0.4,0.8-0.6c0.4-0.2,0.8-0.2,1.3-0.2
			c0.9,0,1.6,0.3,2.1,0.8c0.5,0.6,0.8,1.3,0.8,2.3c0,1-0.3,1.7-0.8,2.3c-0.5,0.6-1.2,0.8-2.1,0.8c-0.9,0-1.6-0.3-2.1-0.8
			C93.9,156.8,93.7,156,93.7,155.1z M94.9,155.1c0,0.7,0.2,1.2,0.5,1.5c0.3,0.3,0.7,0.5,1.2,0.5c0.5,0,0.8-0.2,1.2-0.5
			c0.3-0.3,0.5-0.8,0.5-1.6c0-0.7-0.2-1.2-0.5-1.5c-0.3-0.3-0.7-0.5-1.2-0.5s-0.9,0.2-1.2,0.5C95.1,153.8,94.9,154.3,94.9,155.1z"/>
		<path class="st1" d="M100.4,158v-6h1.2l2.4,4v-4h1.1v6H104l-2.4-3.9v3.9H100.4z"/>
		<path class="st1" d="M108.8,158v-6h1.2l2.4,4v-4h1.1v6h-1.2l-2.4-3.9v3.9H108.8z"/>
		<path class="st1" d="M120.1,158h-1.3l-0.5-1.4H116l-0.5,1.4h-1.3l2.3-6h1.3L120.1,158z M117.9,155.7l-0.8-2.2l-0.8,2.2H117.9z"/>
		<path class="st1" d="M124.6,155.9l1.2,0.4c-0.2,0.7-0.5,1.1-0.9,1.5c-0.4,0.3-1,0.5-1.6,0.5c-0.8,0-1.5-0.3-2-0.8
			c-0.5-0.6-0.8-1.3-0.8-2.2c0-1,0.3-1.7,0.8-2.3s1.2-0.8,2-0.8c0.7,0,1.3,0.2,1.8,0.6c0.3,0.3,0.5,0.6,0.6,1.1l-1.2,0.3
			c-0.1-0.3-0.2-0.6-0.5-0.7s-0.5-0.3-0.8-0.3c-0.5,0-0.8,0.2-1.1,0.5c-0.3,0.3-0.4,0.8-0.4,1.5c0,0.7,0.1,1.3,0.4,1.6
			c0.3,0.3,0.6,0.5,1.1,0.5c0.3,0,0.6-0.1,0.8-0.3C124.3,156.6,124.5,156.3,124.6,155.9z"/>
		<path class="st1" d="M126.7,158v-6h1.2v6H126.7z"/>
		<path class="st1" d="M128.8,155.1c0-0.6,0.1-1.1,0.3-1.5c0.1-0.3,0.3-0.6,0.6-0.8c0.2-0.2,0.5-0.4,0.8-0.6
			c0.4-0.2,0.8-0.2,1.3-0.2c0.9,0,1.6,0.3,2.1,0.8c0.5,0.6,0.8,1.3,0.8,2.3c0,1-0.3,1.7-0.8,2.3c-0.5,0.6-1.2,0.8-2.1,0.8
			c-0.9,0-1.6-0.3-2.1-0.8C129.1,156.8,128.8,156,128.8,155.1z M130.1,155.1c0,0.7,0.2,1.2,0.5,1.5c0.3,0.3,0.7,0.5,1.2,0.5
			c0.5,0,0.8-0.2,1.2-0.5c0.3-0.3,0.5-0.8,0.5-1.6c0-0.7-0.2-1.2-0.5-1.5c-0.3-0.3-0.7-0.5-1.2-0.5c-0.5,0-0.9,0.2-1.2,0.5
			C130.2,153.8,130.1,154.3,130.1,155.1z"/>
		<path class="st1" d="M135.6,158v-6h1.2l2.4,4v-4h1.1v6h-1.2l-2.4-3.9v3.9H135.6z"/>
		<path class="st1" d="M147,158h-1.3l-0.5-1.4h-2.4l-0.5,1.4H141l2.3-6h1.3L147,158z M144.7,155.7l-0.8-2.2l-0.8,2.2H144.7z"/>
		<path class="st1" d="M147.6,158v-5.9h1.2v4.9h3v1H147.6z"/>
		<path class="st1" d="M154.8,152.1h2.2c0.5,0,0.9,0.1,1.1,0.1c0.3,0.1,0.7,0.3,0.9,0.6c0.2,0.3,0.5,0.6,0.6,1
			c0.1,0.4,0.2,0.8,0.2,1.4c0,0.5-0.1,0.9-0.2,1.2c-0.2,0.5-0.3,0.8-0.6,1.1c-0.2,0.2-0.5,0.3-0.8,0.5c-0.3,0.1-0.6,0.1-1.1,0.1
			h-2.3V152.1z M156.1,153.1v3.9h0.9c0.3,0,0.6,0,0.7-0.1s0.3-0.1,0.5-0.2c0.1-0.1,0.2-0.3,0.3-0.6c0.1-0.3,0.1-0.6,0.1-1.1
			s-0.1-0.8-0.1-1.1c-0.1-0.2-0.2-0.5-0.3-0.6s-0.3-0.2-0.6-0.3c-0.2-0.1-0.5-0.1-1-0.1L156.1,153.1L156.1,153.1z"/>
		<path class="st1" d="M160.8,158v-6h4.4v1H162v1.3h3v1h-3v1.6h3.3v1H160.8z"/>
		<path class="st1" d="M57.3,168.1H56l-0.5-1.4H53l-0.5,1.4h-1.2l2.3-6h1.3L57.3,168.1z M55.1,165.7l-0.8-2.2l-0.8,2.2H55.1z"/>
		<path class="st1" d="M58,168.1v-6h1.2l2.4,4v-4h1.1v6h-1.2l-2.4-3.9v3.9H58z"/>
		<path class="st1" d="M63.9,162.1h1.2v3.2c0,0.5,0,0.8,0.1,1c0.1,0.2,0.2,0.5,0.4,0.6s0.5,0.2,0.8,0.2c0.3,0,0.6-0.1,0.8-0.2
			c0.2-0.1,0.3-0.3,0.3-0.5c0.1-0.2,0.1-0.6,0.1-1v-3.3h1.2v3.2c0,0.7-0.1,1.2-0.1,1.5s-0.2,0.6-0.3,0.7c-0.2,0.2-0.4,0.3-0.7,0.5
			c-0.3,0.2-0.7,0.2-1.1,0.2c-0.6,0-1-0.1-1.3-0.2s-0.5-0.3-0.7-0.5c-0.2-0.2-0.3-0.5-0.3-0.7c-0.1-0.3-0.1-0.8-0.1-1.5v-3.2H63.9z"
			/>
		<path class="st1" d="M70,168.1v-6h1.2l2.4,4v-4h1.1v6h-1.2l-2.4-3.9v3.9H70z"/>
		<path class="st1" d="M79.8,165.9l1.2,0.4c-0.2,0.7-0.5,1.1-0.9,1.5c-0.4,0.3-1,0.5-1.6,0.5c-0.8,0-1.5-0.3-2-0.8
			c-0.5-0.6-0.8-1.3-0.8-2.2c0-1,0.3-1.7,0.8-2.3s1.2-0.8,2-0.8c0.7,0,1.3,0.2,1.8,0.6c0.3,0.3,0.5,0.6,0.6,1.1l-1.2,0.3
			c-0.1-0.3-0.2-0.6-0.5-0.7c-0.2-0.2-0.5-0.3-0.8-0.3c-0.5,0-0.8,0.2-1.1,0.5c-0.3,0.3-0.4,0.8-0.4,1.5c0,0.7,0.1,1.3,0.4,1.6
			c0.3,0.3,0.6,0.5,1.1,0.5c0.3,0,0.6-0.1,0.8-0.3C79.5,166.6,79.7,166.3,79.8,165.9z"/>
		<path class="st1" d="M81.9,168.1v-6h1.2v6H81.9z"/>
		<path class="st1" d="M89.6,168.1h-1.3l-0.5-1.4h-2.4l-0.5,1.4h-1.3l2.3-6h1.3L89.6,168.1z M87.4,165.7l-0.8-2.2l-0.8,2.2H87.4z"/>
		<path class="st1" d="M90.3,168.1v-6h1.2l2.4,4v-4h1.1v6h-1.2l-2.4-3.9v3.9H90.3z"/>
		<path class="st1" d="M97.6,168.1v-5h-1.7v-1h4.7v1h-1.7v5H97.6z"/>
		<path class="st1" d="M101.4,168.1v-6h4.4v1h-3.2v1.3h3v1h-3v1.6h3.3v1H101.4z"/>
		<path class="st1" d="M106.7,166.1l1.2-0.1c0.1,0.4,0.2,0.7,0.5,0.8c0.2,0.2,0.5,0.3,0.8,0.3c0.4,0,0.7-0.1,0.9-0.2
			c0.2-0.2,0.3-0.3,0.3-0.6c0-0.1-0.1-0.3-0.1-0.3c-0.1-0.1-0.2-0.2-0.5-0.3c-0.1-0.1-0.5-0.1-1-0.3c-0.6-0.2-1.1-0.3-1.4-0.6
			c-0.3-0.3-0.6-0.7-0.6-1.2c0-0.3,0.1-0.6,0.3-0.8c0.2-0.3,0.4-0.5,0.7-0.6c0.3-0.2,0.7-0.2,1.2-0.2c0.7,0,1.3,0.2,1.7,0.5
			c0.4,0.3,0.6,0.8,0.6,1.3l-1.2,0.1c-0.1-0.3-0.2-0.5-0.3-0.7c-0.2-0.1-0.5-0.2-0.8-0.2s-0.6,0.1-0.8,0.2c-0.1,0.1-0.2,0.2-0.2,0.4
			c0,0.1,0.1,0.3,0.2,0.3c0.2,0.1,0.5,0.3,1.1,0.4c0.6,0.1,1,0.3,1.3,0.5s0.5,0.3,0.7,0.6c0.2,0.3,0.2,0.6,0.2,1
			c0,0.3-0.1,0.7-0.3,1c-0.2,0.3-0.5,0.5-0.8,0.7s-0.8,0.2-1.3,0.2c-0.7,0-1.4-0.2-1.7-0.5C106.9,167.3,106.7,166.8,106.7,166.1z"/>
		<path class="st1" d="M114.7,166.5v-1.1h2.3v1.1H114.7z"/>
		<path class="st1" d="M121.4,168.1l-2.1-6h1.3l1.5,4.4l1.5-4.4h1.3l-2.1,6H121.4z"/>
		<path class="st1" d="M125.4,168.1v-6h4.4v1h-3.2v1.3h3v1h-3v1.6h3.3v1H125.4z"/>
		<path class="st1" d="M131,168.1v-6h1.2l2.4,4v-4h1.1v6h-1.2l-2.4-3.9v3.9H131z"/>
		<path class="st1" d="M137.1,168.1v-6h4.4v1h-3.2v1.3h3v1h-3v1.6h3.3v1H137.1z"/>
		<path class="st1" d="M142.1,168.1V167l3.2-3.9h-2.8v-1h4.3v1l-3.3,4h3.4v1L142.1,168.1L142.1,168.1z"/>
		<path class="st1" d="M147.7,162.1h1.2v3.2c0,0.5,0,0.8,0.1,1c0.1,0.2,0.2,0.5,0.4,0.6c0.2,0.1,0.5,0.2,0.8,0.2
			c0.3,0,0.6-0.1,0.8-0.2c0.2-0.1,0.3-0.3,0.3-0.5c0.1-0.2,0.1-0.6,0.1-1v-3.3h1.2v3.2c0,0.7-0.1,1.2-0.1,1.5s-0.2,0.6-0.3,0.7
			c-0.2,0.2-0.4,0.3-0.7,0.5c-0.3,0.1-0.7,0.2-1.1,0.2c-0.6,0-1-0.1-1.3-0.2s-0.5-0.3-0.7-0.5s-0.3-0.5-0.3-0.7
			c-0.1-0.3-0.1-0.8-0.1-1.5v-3.2H147.7z"/>
		<path class="st1" d="M153.7,168.1v-6h4.4v1h-3.2v1.3h3v1h-3v1.6h3.3v1H153.7z"/>
		<path class="st1" d="M159.3,168.1v-5.9h1.2v4.9h3v1H159.3z"/>
		<path class="st1" d="M169.7,168.1h-1.3l-0.5-1.4h-2.4l-0.5,1.4h-1.3l2.3-6h1.3L169.7,168.1z M167.5,165.7l-0.8-2.2l-0.8,2.2H167.5
			z"/>
	</g>
</g>
</svg>
