<?xml version="1.0" encoding="utf-8"?>
<!-- Generator: Adobe Illustrator 26.0.0, SVG Export Plug-In . SVG Version: 6.00 Build 0)  -->
<svg version="1.1" id="Layer_1" xmlns="http://www.w3.org/2000/svg" xmlns:xlink="http://www.w3.org/1999/xlink" x="0px" y="0px"
	 viewBox="0 0 222 222" style="enable-background:new 0 0 222 222;" xml:space="preserve">
<style type="text/css">
	.st0{fill:#EC1E24;}
	.st1{fill:#3F4040;}
</style>
<g>
	<path class="st0" d="M11,119.4L25.1,97c1.4-2.3,4.3-3.4,8.6-3.4c4.3,0,7.2,1.1,8.6,3.4l14.1,22.4H44.9l-3.5-5.5H25.9l-3.5,5.5H11z
		 M29.2,108.7h9l-5.2-8.3L29.2,108.7z"/>
	<path class="st0" d="M55.4,93.9H67l10.9,18.1l11.2-18.1h11.6l-15,22.7c-1.4,2.1-3.9,3.2-7.6,3.2c-3.7,0-6.3-1.1-7.7-3.2L55.4,93.9z
		"/>
	<path class="st0" d="M100.7,93.9h10.6l6.6,17.7l3.6-14c0.3-1.2,1.3-2.2,2.8-3c1.5-0.8,3.4-1.1,5.5-1.1c1.1,0,2.2,0.1,3.3,0.4
		c3,0.6,4.8,1.8,5.3,3.8l3.6,14l6.5-17.7h10.6l-8.2,22.3c-0.7,1.8-2.6,3-6,3.5c-0.9,0.1-1.8,0.2-2.7,0.2c-2.2,0-4.1-0.3-5.7-1
		c-1.6-0.7-2.6-1.6-2.8-2.7l-4.3-15.2l-3.5,15.2c-0.2,1-1.2,1.9-2.8,2.6c-1.7,0.7-3.6,1.1-5.7,1.1c-1.8,0-3.5-0.3-5-0.8
		c-2-0.7-3.2-1.6-3.7-2.9L100.7,93.9z"/>
	<path class="st0" d="M163.3,119.4V98.4c0-1.4,0.9-2.6,2.6-3.5c1.7-0.9,4.1-1.3,6.9-1.3c0.9,0,1.9,0,2.9,0.1
		c3.5,0.4,5.7,1.4,6.5,3.2l6.4,14.7l7.1-14.7c0.9-1.7,3-2.8,6.4-3.2c1-0.1,2-0.1,3-0.1c2.8,0,5.1,0.5,6.9,1.3
		c1.7,0.9,2.6,2.1,2.6,3.5v21.1h-10.4v-18.3l-7.9,15.4c-0.3,0.6-0.7,1.1-1.1,1.6c-1.2,1.3-3.3,1.9-6.2,1.9c-3.6,0-6.1-1.2-7.2-3.5
		l-7.9-15.4v18.3H163.3z"/>
</g>
<g>
	<path class="st1" d="M8.6,126.8l2.1-3.4c0.2-0.3,0.7-0.5,1.3-0.5c0.7,0,1.1,0.2,1.3,0.5l2.1,3.4h-1.7l-0.5-0.8h-2.3l-0.5,0.8H8.6z
		 M11.3,125.2h1.4l-0.8-1.3L11.3,125.2z"/>
	<path class="st1" d="M15.8,123.7c0-0.1,0-0.1,0-0.2c0.2-0.4,0.7-0.6,1.5-0.6h3.4v0.8l-2.9,0c-0.2,0-0.4,0.1-0.4,0.2v0.3
		c0,0,0,0,0,0.1c0,0.1,0.2,0.2,0.4,0.2c0,0,0.1,0,0.1,0h1.2c0.4,0,0.7,0,0.9,0.1c0.4,0.1,0.6,0.3,0.6,0.6v0.8c0,0.3-0.2,0.5-0.6,0.7
		c-0.3,0.1-0.6,0.1-1,0.1h-3.3V126h2.9c0.3,0,0.4-0.1,0.4-0.2v-0.3c0-0.1-0.1-0.2-0.4-0.2h-1.4c-0.6,0-1-0.1-1.3-0.3
		c-0.2-0.1-0.3-0.3-0.3-0.4V123.7z"/>
	<path class="st1" d="M21.7,123.8c0-0.1,0-0.1,0-0.2c0.2-0.4,0.7-0.6,1.7-0.6h2c1.2,0,1.7,0.3,1.7,0.8v2.2c0,0.6-0.6,0.8-1.7,0.8h-2
		c-0.5,0-0.9,0-1.2-0.1c-0.3-0.1-0.4-0.3-0.5-0.5c0-0.1,0-0.1,0-0.2L21.7,123.8z M23.4,124l0,1.7c0,0.2,0.2,0.3,0.5,0.3h1
		c0.4,0,0.5-0.1,0.5-0.2V124c0-0.2-0.2-0.3-0.5-0.3h-1C23.5,123.8,23.4,123.9,23.4,124z"/>
	<path class="st1" d="M28.1,126v-2.1c0-0.3,0.1-0.6,0.4-0.7c0.3-0.1,0.7-0.2,1.4-0.2h3.2v0.8h-3c-0.2,0-0.3,0.1-0.4,0.2v1.7
		c0,0.1,0,0.2,0.2,0.3c0.1,0,0.2,0,0.3,0h0.1h2.8v0.8h-3.5c-0.2,0-0.4,0-0.6-0.1C28.5,126.6,28.1,126.4,28.1,126z"/>
	<path class="st1" d="M34,126.8v-3.9h1.7v3.9H34z"/>
	<path class="st1" d="M36.2,126.8l2.1-3.4c0.2-0.3,0.7-0.5,1.3-0.5c0.7,0,1.1,0.2,1.3,0.5l2.1,3.4h-1.7l-0.5-0.8h-2.3l-0.5,0.8H36.2
		z M38.9,125.2h1.4l-0.8-1.3L38.9,125.2z"/>
	<path class="st1" d="M43.5,126v-2.1c0-0.3,0.1-0.6,0.4-0.7c0.3-0.1,0.7-0.2,1.4-0.2h3.2v0.8h-3c-0.2,0-0.3,0.1-0.4,0.2v1.7
		c0,0.1,0,0.2,0.2,0.3c0.1,0,0.2,0,0.3,0h0.1h2.8v0.8h-3.5c-0.2,0-0.4,0-0.6-0.1C43.8,126.6,43.5,126.4,43.5,126z"/>
	<path class="st1" d="M49.4,126.8v-3.9h1.7v3.9H49.4z"/>
	<path class="st1" d="M52.1,123.8c0-0.1,0-0.1,0-0.2c0.2-0.4,0.7-0.6,1.7-0.6h2c1.2,0,1.7,0.3,1.7,0.8v2.2c0,0.6-0.6,0.8-1.7,0.8h-2
		c-0.5,0-0.9,0-1.2-0.1c-0.3-0.1-0.4-0.3-0.5-0.5c0-0.1,0-0.1,0-0.2L52.1,123.8z M53.7,124l0,1.7c0,0.2,0.2,0.3,0.5,0.3h1
		c0.4,0,0.5-0.1,0.5-0.2V124c0-0.2-0.2-0.3-0.5-0.3h-1C53.9,123.8,53.7,123.9,53.7,124z M54.2,122.7l0.6-0.6l1.3,0l-0.8,0.6
		L54.2,122.7z"/>
	<path class="st1" d="M58.5,126.8v-3.1c0-0.2,0.1-0.4,0.4-0.6c0.3-0.1,0.6-0.2,1-0.2c0.2,0,0.4,0,0.5,0c0.5,0.1,0.8,0.3,0.9,0.6
		l1.2,2.2v-2.8h1.6v3.2c0,0.2-0.1,0.4-0.4,0.5c-0.3,0.1-0.6,0.2-1,0.2c-0.7,0-1.2-0.2-1.5-0.7l-1.2-2.2v2.8H58.5z"/>
	<path class="st1" d="M67.6,122.9h1.8l1.7,2.7l1.7-2.7h1.7l-2.3,3.4c-0.2,0.3-0.6,0.5-1.1,0.5c-0.6,0-1-0.2-1.2-0.5L67.6,122.9z"/>
	<path class="st1" d="M74.8,126v-2.2c0-0.1,0-0.1,0-0.2c0.1-0.4,0.7-0.7,1.6-0.7h3.4v0.8h-3c0,0-0.1,0-0.1,0c-0.2,0-0.3,0.1-0.3,0.2
		v0.4h3.4v0.8h-3.4v0.4c0,0.2,0.1,0.2,0.4,0.3h2.9v0.8h-3.2C75.4,126.8,74.8,126.5,74.8,126z"/>
	<path class="st1" d="M80.8,126.8v-3.1c0-0.2,0.1-0.4,0.4-0.6c0.3-0.1,0.6-0.2,1-0.2c0.2,0,0.4,0,0.5,0c0.5,0.1,0.8,0.3,0.9,0.6
		l1.2,2.2v-2.8h1.6v3.2c0,0.2-0.1,0.4-0.4,0.5c-0.3,0.1-0.6,0.2-1,0.2c-0.7,0-1.2-0.2-1.5-0.7l-1.2-2.2v2.8H80.8z"/>
	<path class="st1" d="M87.4,126v-2.2c0-0.1,0-0.1,0-0.2c0.1-0.4,0.7-0.7,1.6-0.7h3.4v0.8h-3c0,0-0.1,0-0.1,0c-0.2,0-0.3,0.1-0.3,0.2
		v0.4h3.4v0.8h-3.4v0.4c0,0.2,0.1,0.2,0.4,0.3h2.9v0.8h-3.2C88,126.8,87.4,126.5,87.4,126z"/>
	<path class="st1" d="M93.4,125.9l2.9-2.1h-3.1v-0.8h4.1c0.3,0,0.5,0,0.7,0.1c0.3,0.1,0.5,0.2,0.5,0.4c0,0.1-0.1,0.2-0.2,0.3
		l-3.1,2.2h3v0.8h-3.6c-1,0-1.5-0.2-1.5-0.6C93.1,126.1,93.2,126,93.4,125.9z"/>
	<path class="st1" d="M99.2,123.8c0-0.1,0-0.1,0-0.2c0.2-0.4,0.7-0.6,1.7-0.6h2c1.2,0,1.7,0.3,1.7,0.8v2.2c0,0.6-0.6,0.8-1.7,0.8h-2
		c-0.5,0-0.9,0-1.2-0.1c-0.3-0.1-0.4-0.3-0.5-0.5c0-0.1,0-0.1,0-0.2L99.2,123.8z M100.9,124l0,1.7c0,0.2,0.2,0.3,0.5,0.3h1
		c0.4,0,0.5-0.1,0.5-0.2V124c0-0.2-0.2-0.3-0.5-0.3h-1C101.1,123.8,100.9,123.9,100.9,124z"/>
	<path class="st1" d="M105.7,125.9v-2.9h1.7v2.9c0,0.1,0.1,0.2,0.4,0.2h2.9l0,0.8h-3.1c-0.1,0-0.2,0-0.3,0c-0.6,0-1-0.1-1.3-0.3
		C105.8,126.4,105.7,126.2,105.7,125.9z"/>
	<path class="st1" d="M110.9,126.8l2.1-3.4c0.2-0.3,0.7-0.5,1.3-0.5c0.7,0,1.1,0.2,1.3,0.5l2.1,3.4H116l-0.5-0.8h-2.3l-0.5,0.8
		H110.9z M113.6,125.2h1.4l-0.8-1.3L113.6,125.2z"/>
	<path class="st1" d="M118.2,126.8v-3.1c0-0.2,0.1-0.4,0.4-0.6c0.3-0.1,0.6-0.2,1-0.2c0.2,0,0.4,0,0.5,0c0.5,0.1,0.8,0.3,0.9,0.6
		l1.2,2.2v-2.8h1.6v3.2c0,0.2-0.1,0.4-0.4,0.5c-0.3,0.1-0.6,0.2-1,0.2c-0.7,0-1.2-0.2-1.5-0.7l-1.2-2.2v2.8H118.2z"/>
	<path class="st1" d="M124.2,126.8l2.1-3.4c0.2-0.3,0.7-0.5,1.3-0.5c0.7,0,1.1,0.2,1.3,0.5l2.1,3.4h-1.7l-0.5-0.8h-2.3l-0.5,0.8
		H124.2z M127,125.2h1.4l-0.8-1.3L127,125.2z"/>
	<path class="st1" d="M134.7,126.8v-3.9h3.9c1.1,0,1.7,0.3,1.7,0.8v2.2c0,0,0,0.1,0,0.1c-0.1,0.5-0.6,0.7-1.6,0.7H134.7z M136.3,126
		h1.7c0.2,0,0.3,0,0.4,0c0.1,0,0.2-0.1,0.2-0.3c0,0,0,0,0-0.1V124c-0.1-0.1-0.2-0.2-0.6-0.2h-1.7V126z"/>
	<path class="st1" d="M141.3,126v-2.2c0-0.1,0-0.1,0-0.2c0.1-0.4,0.7-0.7,1.6-0.7h3.4v0.8h-3c0,0-0.1,0-0.1,0
		c-0.2,0-0.3,0.1-0.3,0.2v0.4h3.4v0.8H143v0.4c0,0.2,0.1,0.2,0.4,0.3h2.9v0.8h-3.2C141.9,126.8,141.3,126.5,141.3,126z"/>
	<path class="st1" d="M150,122.9h1.6l1,2.7l0.5-2.1c0.1-0.2,0.2-0.3,0.4-0.4s0.5-0.2,0.8-0.2c0.2,0,0.3,0,0.5,0.1
		c0.5,0.1,0.7,0.3,0.8,0.6l0.5,2.1l1-2.7h1.6l-1.2,3.4c-0.1,0.3-0.4,0.4-0.9,0.5c-0.1,0-0.3,0-0.4,0c-0.3,0-0.6-0.1-0.9-0.2
		c-0.2-0.1-0.4-0.2-0.4-0.4l-0.6-2.3l-0.5,2.3c0,0.2-0.2,0.3-0.4,0.4c-0.2,0.1-0.5,0.2-0.9,0.2c-0.3,0-0.5,0-0.7-0.1
		c-0.3-0.1-0.5-0.2-0.6-0.4L150,122.9z"/>
	<path class="st1" d="M159.5,126v-2.2c0-0.1,0-0.1,0-0.2c0.1-0.4,0.7-0.7,1.6-0.7h3.4v0.8h-3c0,0-0.1,0-0.1,0
		c-0.2,0-0.3,0.1-0.3,0.2v0.4h3.4v0.8h-3.4v0.4c0,0.2,0.1,0.2,0.4,0.3h2.9v0.8h-3.2C160.1,126.8,159.5,126.5,159.5,126z"/>
	<path class="st1" d="M165.4,122.9h4c0.8,0,1.2,0.1,1.4,0.4c0.1,0.1,0.1,0.2,0.1,0.4v0.3c0,0.4-0.2,0.6-0.7,0.7
		c0.5,0.1,0.7,0.3,0.7,0.7v0.4c0,0.6-0.5,0.9-1.6,0.9h-3.9V122.9z M167.1,123.8v0.7h1.8c0.3,0,0.4-0.1,0.4-0.2V124
		c0-0.1-0.1-0.1-0.2-0.2c-0.1,0-0.1,0-0.2,0H167.1z M167.1,125.3v0.7h1.8c0.2,0,0.4-0.1,0.4-0.2v-0.2c0-0.1-0.1-0.2-0.4-0.2H167.1z"
		/>
	<path class="st1" d="M172,126.8v-3.2c0-0.2,0.1-0.4,0.4-0.5c0.3-0.1,0.6-0.2,1.1-0.2c0.1,0,0.3,0,0.4,0c0.5,0.1,0.9,0.2,1,0.5
		l1,2.2l1.1-2.2c0.1-0.3,0.5-0.4,1-0.5c0.1,0,0.3,0,0.4,0c0.4,0,0.8,0.1,1,0.2c0.3,0.1,0.4,0.3,0.4,0.5v3.2h-1.6V124l-1.2,2.3
		c0,0.1-0.1,0.2-0.2,0.2c-0.2,0.2-0.5,0.3-0.9,0.3c-0.6,0-0.9-0.2-1.1-0.5l-1.2-2.3v2.8H172z"/>
	<path class="st1" d="M180.2,126.8l2.1-3.4c0.2-0.3,0.6-0.5,1.3-0.5c0.7,0,1.1,0.2,1.3,0.5l2.1,3.4h-1.7l-0.5-0.8h-2.3l-0.5,0.8
		H180.2z M183,125.2h1.4l-0.8-1.3L183,125.2z"/>
	<path class="st1" d="M187.5,123.7c0-0.1,0-0.1,0-0.2c0.2-0.4,0.7-0.6,1.5-0.6h3.4v0.8l-2.9,0c-0.2,0-0.4,0.1-0.4,0.2v0.3
		c0,0,0,0,0,0.1c0,0.1,0.2,0.2,0.4,0.2c0,0,0.1,0,0.1,0h1.2c0.4,0,0.7,0,0.9,0.1c0.4,0.1,0.6,0.3,0.6,0.6v0.8c0,0.3-0.2,0.5-0.6,0.7
		c-0.3,0.1-0.6,0.1-1,0.1h-3.3V126h2.9c0.3,0,0.4-0.1,0.4-0.2v-0.3c0-0.1-0.1-0.2-0.4-0.2H189c-0.6,0-1-0.1-1.3-0.3
		c-0.2-0.1-0.3-0.3-0.3-0.4V123.7z"/>
	<path class="st1" d="M193,123.8v-0.8h5v0.8h-1.7v3h-1.7v-3H193z"/>
	<path class="st1" d="M198.6,126v-2.2c0-0.1,0-0.1,0-0.2c0.1-0.4,0.7-0.7,1.6-0.7h3.4v0.8h-3c0,0-0.1,0-0.1,0
		c-0.2,0-0.3,0.1-0.3,0.2v0.4h3.4v0.8h-3.4v0.4c0,0.2,0.1,0.2,0.4,0.3h2.9v0.8h-3.2C199.2,126.8,198.6,126.5,198.6,126z"/>
	<path class="st1" d="M204.5,122.9h3.9c1.1,0,1.6,0.3,1.6,0.8v0.8c0,0.3-0.2,0.4-0.5,0.6c-0.2,0.1-0.5,0.2-0.8,0.2
		c-0.1,0-0.2,0-0.3,0l-0.3,0l1.9,1.5h-2l-1.7-1.4c-0.1-0.1-0.1-0.2-0.1-0.3c0.1-0.3,0.4-0.5,1-0.5h0.7c0.3,0,0.4-0.1,0.4-0.2V124
		c0-0.1-0.1-0.2-0.4-0.2c0,0-0.1,0-0.1,0h-1.7v3h-1.7V122.9z"/>
	<path class="st1" d="M210.9,123.7c0-0.1,0-0.1,0-0.2c0.2-0.4,0.7-0.6,1.5-0.6h3.4v0.8l-2.9,0c-0.2,0-0.4,0.1-0.4,0.2v0.3
		c0,0,0,0,0,0.1c0,0.1,0.2,0.2,0.4,0.2c0,0,0.1,0,0.1,0h1.2c0.4,0,0.7,0,0.9,0.1c0.4,0.1,0.6,0.3,0.6,0.6v0.8c0,0.3-0.2,0.5-0.6,0.7
		c-0.3,0.1-0.6,0.1-1,0.1h-3.3V126h2.9c0.3,0,0.4-0.1,0.4-0.2v-0.3c0-0.1-0.1-0.2-0.4-0.2h-1.4c-0.6,0-1-0.1-1.3-0.3
		c-0.2-0.1-0.3-0.3-0.3-0.4V123.7z"/>
</g>
</svg>
